<?xml version="1.0" encoding="UTF-8" standalone="no"?><!DOCTYPE svg PUBLIC "-//W3C//DTD SVG 1.1//EN" "http://www.w3.org/Graphics/SVG/1.1/DTD/svg11.dtd"><svg width="100%" height="100%" viewBox="0 0 256 256" version="1.1" xmlns="http://www.w3.org/2000/svg" xmlns:xlink="http://www.w3.org/1999/xlink" xml:space="preserve" xmlns:serif="http://www.serif.com/" style="fill-rule:evenodd;clip-rule:evenodd;stroke-miterlimit:10;"><g id="Silhouette"><g><path d="M147.495,53.37c4.626,-5.542 -8.85,-11.714 -8.85,-11.714c-2.419,-2.71 -38.387,-2.544 -37.501,-3.361c4.153,-3.827 9.177,-11.523 13.437,-16.884c2.413,-3.038 9.584,-12.533 10.046,-13.157c6.456,0.111 25.372,2.127 48.29,5.735c25.958,4.088 66.143,36.914 71.862,40.772c5.719,3.857 0.659,9.076 -3.741,14.295c-4.4,5.218 -18.26,12.705 -18.26,12.705c0.44,-6.353 -32.926,-21.026 -32.926,-21.026c0.439,10.439 -14.742,31.994 -24.422,37.438c-9.68,5.445 -19.142,31.086 -19.142,31.086c6.599,7.942 -68.246,-22.364 -63.599,-20.701c21.057,7.535 59.726,-49.105 64.806,-55.188Zm9.94,3.222c0,-0 6.903,-7.255 12.589,-10.149c5.685,-2.893 16.536,-1.425 20.178,7.512c-0,-0 -11.895,-5.079 -32.767,2.637Z" style="fill:#afb1b3;stroke:#1e1c1a;stroke-opacity:0;stroke-width:0.63px;"/><path d="M97.398,38.493c-1.945,-0.141 -5.847,-0.232 -5.847,-0.232c2.991,-15.268 13.86,-30.277 30.738,-30.007l-24.817,29.603m9.685,-20.892c0.984,0.467 0.335,3.999 0.334,4.013c-0.131,0.987 -0.331,1.966 -0.572,2.932c-0.193,0.771 -0.41,1.543 -0.729,2.271c-0.688,1.574 -3.561,2.952 -4.716,3.528c-0.765,0.382 -2.918,1.356 -4.18,1.513c-0.239,0.03 -0.508,0.073 -0.721,-0.039c-0.429,-0.225 -0.223,-1.169 -0.164,-1.379c0.248,-0.893 0.538,-1.778 0.894,-2.634c1.725,-4.148 2.437,-6.37 6.017,-8.732c0.318,-0.209 2.839,-1.948 3.837,-1.473Z" style="fill:#6e6e6e;stroke:#1e1c1a;stroke-opacity:0;stroke-width:0.63px;"/><path d="M74.382,103.726c-0,-0 -1.99,-0.783 -3.731,5.003c-1.74,5.786 -36.091,22.805 -43.611,23.339c0,-0 26.826,-24.002 24.161,-31.159c0.57,-1.724 -0.751,-14.886 -5.834,-22.945c-11.213,-17.776 -35.805,-33.161 -35.805,-33.161c0,-0 17.669,-1.127 33.699,6.231c13.96,6.408 27.338,15.897 33.961,24.617" style="fill:#6e6e6e;fill-rule:nonzero;"/><path d="M74.773,104.139c-4.052,0.74 -2.936,4.793 -8.721,3.856c-3.708,-0.601 -16.051,-5.427 -15.331,-7.337c1.018,-2.701 0.414,-5.793 0.063,-8.658c-2.916,-23.784 -41.342,-47.385 -42.688,-47.417c-0,0 30.302,-2.72 56.461,18.976c4.363,3.619 8.515,7.494 12.565,11.461c7.682,-6.617 11.571,-7.615 17.105,-11.6c11.623,-8.37 27.911,-12.669 40.973,-20.616c15.033,5.088 4.473,15.555 -2.971,24.254c-11.037,12.899 -25.56,31.374 -42.241,37.42c-7.835,2.839 -9.092,-1.458 -15.215,-0.339Zm14.825,-29.299c-0.385,0.981 -0.771,1.964 -1.077,2.973c-1.444,4.766 -3.073,9.948 -2.796,15.032c0.09,1.659 0.363,3.515 1.231,4.999c0.258,0.442 0.761,1.708 0.929,1.224c0.227,-0.658 -0.512,-1.301 -0.668,-1.979c-0.18,-0.779 -0.32,-1.574 -0.338,-2.373c-0.042,-1.912 -0.019,-3.832 0.159,-5.736c0.398,-4.252 1.634,-10.042 2.56,-14.14Zm-6.533,4.331c-0.24,0.779 -0.48,1.559 -0.657,2.354c-0.852,3.838 -1.787,7.95 -1.313,11.929c0.113,0.952 0.275,1.916 0.628,2.808c0.312,0.789 1.176,2.996 1.34,2.164c0.286,-1.454 -0.73,-2.88 -0.91,-4.35c-0.604,-4.943 0.079,-10.037 0.912,-14.905Zm15.556,-9.786c-0.554,1.14 -1.11,2.281 -1.568,3.462c-2.107,5.427 -4.568,11.467 -4.537,17.454c0.01,1.916 0.24,4.06 1.257,5.763c0.306,0.512 1.084,1.995 1.112,1.4c0.078,-1.715 -0.864,-3.347 -0.944,-5.062c-0.356,-7.574 2.823,-15.879 4.68,-23.017Z" style="fill:#6e6e6e;stroke:#1e1c1a;stroke-opacity:0;stroke-width:0.63px;"/></g><text x="39.843px" y="248px" style="font-family:'Menlo-Bold', 'Menlo', monospace;font-weight:700;font-size:138.085px;fill:#3592c4;">FM</text></g></svg>