<?xml version="1.0" encoding="UTF-8" standalone="no"?><!DOCTYPE svg PUBLIC "-//W3C//DTD SVG 1.1//EN" "http://www.w3.org/Graphics/SVG/1.1/DTD/svg11.dtd"><svg width="100%" height="100%" viewBox="0 0 256 256" version="1.1" xmlns="http://www.w3.org/2000/svg" xmlns:xlink="http://www.w3.org/1999/xlink" xml:space="preserve" xmlns:serif="http://www.serif.com/" style="fill-rule:evenodd;clip-rule:evenodd;stroke-miterlimit:10;"><g><g id="Silhouette"><path d="M59.545,159.207c0,0 7.277,7.604 15.507,11.797l44.846,21.841c0,-0 3.486,3.237 8.539,3.988c-0,-0 7.955,18.817 9.486,25.13c1.531,6.313 10.014,13.893 18.197,15.007c0,0 -2.721,-28.174 0.65,-35.635c-0,-0 -33.302,-11.473 -43.758,-17.151c-4.321,-2.346 -24.494,-15.215 -30.883,-20.075c-14.449,-10.989 -32.889,-34.892 -7.012,-58.974c-0,-0 -0.532,-0.49 -2.136,-1.045c-3.495,-1.209 -1.876,-4.411 0.819,-5.51c3.164,-1.29 8.157,-2.908 9.964,-3.077c-1.26,-7.345 -6.878,-15.641 -11.403,-21.736c0,0 -3.314,5.355 -9.428,8.837c-1.474,0.838 -5.228,0.891 -6.906,1.774c-12.902,6.788 -25.361,23.634 -23.855,33.152c2.249,14.217 9.004,20.897 9.004,20.897l18.369,20.78" style="fill:#b4b1b1;fill-rule:nonzero;"/><path d="M111.887,44.879c3.27,-2.609 -3.707,-7.654 -3.707,-7.654c-1.07,-1.813 -21.591,-5.847 -20.993,-6.208c2.804,-1.692 6.545,-5.476 9.585,-8.025c1.723,-1.444 6.894,-6.002 7.228,-6.302c3.667,0.803 14.22,4.116 26.871,8.792c14.33,5.295 33.491,28.508 36.31,31.35c2.82,2.843 -0.66,5.219 -3.763,7.671c-3.104,2.452 -11.858,5.104 -11.858,5.104c0.976,-3.55 -16.369,-15.694 -16.369,-15.694c-0.941,5.966 -12.054,16.438 -18.192,18.412c-6.139,1.974 -14.458,15.418 -14.458,15.418c2.855,5.258 2.265,27.616 -2.49,41.51c-4.756,13.893 -13.329,15.645 -13.329,15.645c-0,0 0.239,-10.254 0.412,-22.127c0.174,-11.873 -9.084,-17.083 -9.084,-17.083c-1.633,-1.176 -4.861,-2.337 -5.816,-4.335c-0.759,-1.59 9.864,-3 9.518,-4.892c-1.843,-10.066 -9.82,-23.23 -10.589,-22.045c-2.978,4.593 -8.19,7.349 -11.113,7.363c-10.125,0.051 -19.454,-1.966 -19.454,-1.966c-16.678,-7.239 -38.723,-3.385 -38.723,-3.385c9.44,-7.999 44.316,-8.6 44.316,-8.6c-0,0 1.507,-2.152 -0,-0c-0,-0 6.144,0.437 11.351,-0.028c5.207,-0.465 8.652,-0.562 11.111,0.913c11.143,6.687 39.647,-20.97 43.236,-23.834Zm5.299,2.967c-0,-0 4.762,-3.319 8.333,-4.306c3.571,-0.987 9.589,1.09 10.645,6.572c-0,-0 -6.201,-4.243 -18.978,-2.266Z" style="fill:#b4b1b1;stroke:#1e1c1a;stroke-opacity:0;stroke-width:0.63px;"/><path d="M85.029,30.699c-1.092,-0.303 -3.306,-0.802 -3.306,-0.802c3.447,-8.309 11.354,-15.566 20.944,-13.476l-17.523,13.927m7.904,-10.728c0.508,0.378 -0.265,2.305 -0.268,2.313c-0.187,0.544 -0.412,1.076 -0.66,1.596c-0.198,0.415 -0.41,0.827 -0.675,1.203c-0.572,0.813 -2.366,1.264 -3.09,1.458c-0.48,0.128 -1.818,0.433 -2.555,0.377c-0.14,-0.01 -0.298,-0.017 -0.407,-0.105c-0.219,-0.176 0.006,-0.687 0.064,-0.8c0.243,-0.478 0.509,-0.946 0.81,-1.39c1.456,-2.152 2.116,-3.33 4.426,-4.257c0.205,-0.082 1.84,-0.778 2.355,-0.395Z" style="fill:#868f9b;stroke:#1e1c1a;stroke-opacity:0;stroke-width:0.63px;"/><path d="M65.816,65.365c-0.233,-0.088 -4.119,-0.406 -8.735,-0.333c-5.658,0.089 -9.611,0.8 -12.065,2.416c-0,-0 5.858,-5.367 6.353,-6.654c0.602,-1.567 0.901,-3.256 1.03,-4.93c1.068,-13.899 -18.136,-31.769 -18.9,-31.942c0,-0 17.593,1.928 30.019,17.304c2.073,2.565 3.996,5.251 5.85,7.979c5.141,-2.891 7.473,-3.014 11.086,-4.651c7.59,-3.439 17.372,-4.02 25.734,-7.052c7.988,4.627 0.764,9.384 -4.48,13.49c-7.775,6.088 -20.222,15.646 -28.823,16.281c-3.411,0.251 -3.771,-0.651 -7.069,-1.908Zm10.688,-14.831c-0.333,0.516 -0.666,1.032 -0.956,1.572c-1.371,2.552 -2.894,5.32 -3.321,8.252c-0.139,0.956 -0.196,2.046 0.128,2.992c0.097,0.282 0.238,1.061 0.389,0.805c0.206,-0.35 -0.142,-0.801 -0.153,-1.206c-0.013,-0.464 -0.002,-0.934 0.08,-1.392c0.195,-1.095 0.429,-2.187 0.749,-3.253c0.715,-2.379 2.085,-5.538 3.084,-7.77Zm-4.224,1.72c-0.226,0.417 -0.452,0.834 -0.644,1.268c-0.927,2.09 -1.932,4.328 -2.119,6.651c-0.045,0.556 -0.063,1.125 0.036,1.674c0.088,0.485 0.327,1.843 0.516,1.387c0.33,-0.795 -0.086,-1.725 -0.02,-2.584c0.223,-2.888 1.198,-5.715 2.231,-8.396Zm9.995,-3.794c-0.446,0.586 -0.894,1.173 -1.291,1.794c-1.825,2.853 -3.922,6.015 -4.592,9.433c-0.214,1.093 -0.329,2.343 0.055,3.431c0.116,0.326 0.39,1.262 0.474,0.925c0.241,-0.968 -0.108,-2.008 0.043,-2.995c0.666,-4.36 3.433,-8.731 5.311,-12.588Z" style="fill:#868f9b;stroke:#1e1c1a;stroke-opacity:0;stroke-width:0.63px;"/><path d="M39.471,80.551c-7.973,17.887 -9.555,30.385 -7.313,38.7c-2.522,-16.016 9.47,-26.61 23.748,-36.35c-5.796,-0.503 -11.306,-1.372 -16.435,-2.35Z" style="fill:#868f9b;stroke:#868f9b;stroke-opacity:0;stroke-width:4.17px;stroke-linecap:round;stroke-linejoin:round;stroke-miterlimit:1.5;"/><path d="M41.176,139.427c0,0 -10.032,20 -6.61,32.833c-0,-0 5.867,-13.232 12.305,-12.069c6.438,1.163 9.867,7.992 11.332,6.019c1.465,-1.974 1.342,-6.003 1.342,-6.003c-7.701,-8.625 -13.258,-14.943 -18.369,-20.78Z" style="fill:#b4b1b1;fill-rule:nonzero;"/><path d="M157.117,200.206c0,-0 21.391,-14.777 35.399,-33.976c14.008,-19.199 14.667,-33.079 13.363,-36.544c0,0 -0.935,9.287 -10.868,12.224c-0,0 4.064,11.628 -8.056,19.463c-12.12,7.836 -51.414,18.074 -54.091,24.741l-22.455,-15.731c-0,-0 11.126,6.377 13.333,6.688c-0,-0 -8.126,-6.04 -9.736,-10.634c-1.611,-4.595 3.066,-9.926 5.429,-11.719c2.362,-1.793 4.652,-6.537 -2.225,-5.519c-6.878,1.017 -14.632,5.728 -22.919,5.127c0,0 -22.189,-19.041 -16.121,-48.513l-1.741,-0.59c0,0 -18.166,17.455 -10.005,35.172l7.711,15.537c-0,0 32.406,27.366 56.876,35.159" style="fill:#868f9b;fill-rule:nonzero;"/><path d="M75.052,172.004c0,0 -2.486,18.316 6.693,23.1c-0,-0 6.323,-8.869 20.094,-3.694c13.771,5.175 16.743,8.308 17.772,5.847c1.03,-2.462 0.195,-3.551 0.195,-3.551l-44.754,-21.702Z" style="fill:#868f9b;fill-rule:nonzero;"/><path d="M57.83,134.551c-0,0 13.354,8.423 19.775,15.09c6.421,6.668 9.422,12.528 -1.456,7.232c-10.878,-5.296 -9.253,-1.505 -9.302,1.114c-0.049,2.617 -0.119,3.558 -2.55,1.397c-2.432,-2.162 -12.63,-18.548 -12.63,-18.548" style="fill:#ccc;fill-rule:nonzero;"/></g><text x="111.934px" y="128px" style="font-family:'Menlo-Regular', 'Menlo', monospace;font-size:58.634px;fill:#9aa7b0;">HAnS</text></g></svg>